<?xml version="1.0" encoding="utf-8"?>
<!-- Generator: Adobe Illustrator 26.2.1, SVG Export Plug-In . SVG Version: 6.00 Build 0)  -->
<svg version="1.1" id="Capa_1" xmlns="http://www.w3.org/2000/svg" xmlns:xlink="http://www.w3.org/1999/xlink" x="0px" y="0px"
	 viewBox="0 0 31.5 31.5" style="enable-background:new 0 0 31.5 31.5;" xml:space="preserve">
<style type="text/css">
	.st0{fill:#4D4D4D;}
	.st1{fill:#474854;}
</style>
<g>
	<path class="st1" d="M12,12.3c-0.2-0.2-0.4-0.3-0.7-0.4c-0.3-0.1-0.6-0.1-1.1-0.1H9.1v4.1h1.2c0.4,0,0.7-0.1,1-0.2
		c0.3-0.1,0.5-0.2,0.7-0.4c0.2-0.2,0.3-0.4,0.4-0.7c0.1-0.3,0.2-0.6,0.2-0.9c0-0.3,0-0.6-0.1-0.8C12.3,12.7,12.2,12.5,12,12.3z"/>
	<path class="st1" d="M27,0H4.5C2,0,0,2,0,4.5V27c0,2.5,2,4.5,4.5,4.5H27c2.5,0,4.5-2,4.5-4.5V4.5C31.5,2,29.5,0,27,0z M14.5,15.2
		c-0.2,0.5-0.5,0.9-0.9,1.3c-0.4,0.4-0.9,0.6-1.4,0.9c-0.6,0.2-1.3,0.3-2,0.3H9.1v3.6H6.9V10h3.3c0.7,0,1.4,0.1,2,0.2
		c0.6,0.2,1,0.4,1.4,0.7c0.4,0.3,0.7,0.7,0.9,1.1c0.2,0.4,0.3,1,0.3,1.5C14.8,14.2,14.7,14.7,14.5,15.2z M23.7,20
		c-0.2,0.4-0.5,0.6-0.9,0.9c-0.4,0.2-0.8,0.4-1.3,0.5c-0.5,0.1-0.9,0.2-1.4,0.2c-0.6,0-1.2,0-1.8-0.1c-0.5-0.1-1-0.1-1.5-0.3v-1.9
		c0.5,0.2,1.1,0.4,1.6,0.5c0.5,0.1,1.1,0.2,1.5,0.2c0.6,0,1-0.1,1.2-0.3c0.3-0.2,0.4-0.4,0.4-0.7c0-0.1,0-0.3-0.1-0.4
		c-0.1-0.1-0.2-0.2-0.3-0.3c-0.2-0.1-0.4-0.2-0.7-0.3c-0.3-0.1-0.7-0.2-1.1-0.4c-0.4-0.1-0.8-0.3-1.1-0.4c-0.3-0.2-0.6-0.3-0.8-0.5
		c-0.2-0.2-0.4-0.5-0.5-0.7c-0.1-0.3-0.2-0.6-0.2-1c0-0.4,0.1-0.7,0.2-1c0.2-0.3,0.4-0.6,0.7-0.8c0.3-0.2,0.7-0.4,1.2-0.6
		c0.5-0.1,1-0.2,1.7-0.2c0.6,0,1,0,1.5,0.1c0.4,0.1,0.8,0.1,1.1,0.2v1.7c-0.5-0.2-1-0.3-1.4-0.3c-0.4-0.1-0.9-0.1-1.3-0.1
		c-0.4,0-0.8,0.1-1,0.2c-0.3,0.2-0.4,0.4-0.4,0.6c0,0.1,0,0.3,0.1,0.4c0.1,0.1,0.2,0.2,0.3,0.3c0.2,0.1,0.4,0.2,0.6,0.3
		c0.3,0.1,0.6,0.2,1.1,0.3c0.5,0.1,0.9,0.3,1.3,0.5c0.3,0.2,0.6,0.4,0.8,0.6c0.2,0.2,0.4,0.4,0.5,0.7c0.1,0.3,0.1,0.6,0.1,0.9
		C24,19.2,23.9,19.7,23.7,20z"/>
</g>
</svg>
