<?xml version="1.0" encoding="utf-8"?>
<!-- Generator: Adobe Illustrator 26.2.1, SVG Export Plug-In . SVG Version: 6.00 Build 0)  -->
<svg version="1.1" id="Capa_1" xmlns="http://www.w3.org/2000/svg" xmlns:xlink="http://www.w3.org/1999/xlink" x="0px" y="0px"
	 viewBox="0 0 31.5 31.5" style="enable-background:new 0 0 31.5 31.5;" xml:space="preserve">
<style type="text/css">
	.st0{fill:#4D4D4D;}
	.st1{fill:#474854;}
</style>
<g>
	<path class="st1" d="M14.3,11.9c0.4-0.7,0.7-1.4,1-2.1c0.5-1.1,1-2.2,1.9-3.1c0.8-0.8,1.7-1.3,2.9-1C20,5.6,20,5.5,20,5.5
		c-1.3-1.2-2.9-1.8-4.6-1.7c-1.9,0.1-2.9,1-3.2,2.7c-0.3,1.9,0.2,3.7,1.2,5.4C13.7,12.5,13.9,12.5,14.3,11.9z M14.4,4.7
		c0.3-0.2,0.7-0.3,1.5-0.3c0.8,0,1,0.1,1.5,0.3c0.1,0.1,0.3,0.2,0.3,0.3c0,0.1-0.1,0.3-0.3,0.3c-1,0.4-2,0.4-3,0
		c-0.1,0-0.3-0.2-0.3-0.3C14.2,4.9,14.3,4.7,14.4,4.7z"/>
	<path class="st1" d="M19,23.3c-0.4,0-0.9,0-1.3,0c-0.6,0-0.9,0.4-1,0.9c0,0.5,0.3,0.9,0.8,1c0.6,0,1.1,0,1.7,0c0-0.6,0-1.1,0-1.7
		C19.3,23.3,19.2,23.3,19,23.3z"/>
	<path class="st1" d="M15.3,16.2c2.5,0.2,4.9-1.3,5.8-3.8c0.5-1.5,0.6-3-0.2-4.4c-0.6-1.1-1.8-1.3-2.7-0.4c-0.4,0.5-0.8,1-1.1,1.5
		c-0.6,1.2-1.2,2.5-1.8,3.7c-0.2,0.4-0.5,0.7-0.8,1c-0.4,0.4-0.8,0.4-1.2,0c-0.3-0.3-0.6-0.5-0.8-0.9c-1.5-2.4-2.2-4.9-0.9-7.6
		c0,0,0,0,0,0c-0.1,0-0.1,0.1-0.2,0.1c-1.7,1.6-2.2,3.6-1.8,5.9C10.3,14,12.6,16,15.3,16.2z"/>
	<path class="st1" d="M26.9,0H4.5C2,0,0,2,0,4.5v22.4c0,2.5,2,4.5,4.5,4.5h22.4c2.5,0,4.5-2,4.5-4.5V4.5C31.5,2,29.4,0,26.9,0z
		 M15.7,3.4c3.9,0,7,3.1,6.9,7c0,3.8-3.1,6.9-7,6.9c-3.9,0-6.9-3.1-6.9-7C8.8,6.4,11.9,3.4,15.7,3.4z M8.6,25.8
		c-0.1,0.2-0.1,0.2-0.3,0.2c-0.2,0-0.3-0.1-0.3-0.3c-0.6-1.9-1.3-3.8-2-5.7c-0.1-0.3-0.1-0.3,0.3-0.3c0.8,0,0.6-0.2,0.9,0.6
		c0.3,0.9,0.7,1.9,1,2.8c0,0.1,0.1,0.2,0.2,0.4c0.1-0.2,0.1-0.3,0.2-0.4c0.4-1,0.7-2.1,1.1-3.1c0.1-0.2,0.2-0.4,0.5-0.3
		c0.1,0,0.3,0,0.4,0c0.2,0,0.3,0.1,0.2,0.3c-0.5,1.3-0.9,2.6-1.4,3.9C9,24.7,8.8,25.3,8.6,25.8z M10.9,24c-0.3,0-0.5-0.2-0.6-0.5
		c0-0.3,0.2-0.5,0.5-0.5c0.3,0,0.6,0.2,0.5,0.5C11.4,23.8,11.2,24,10.9,24z M13.9,20.9c-0.6,0.3-0.8,0.8-0.8,1.4c0,1.1,0,2.3,0,3.4
		c0,0.3-0.1,0.4-0.3,0.4c-0.7,0-0.6,0.1-0.6-0.6c0-0.5,0-1.1,0-1.6c0-0.5,0-1.1,0-1.6c0-1,0.4-1.8,1.4-2.2c0.9-0.4,1.8-0.3,2.7,0.4
		c0.2,0.1,0.3,0.3,0.4,0.5c-0.2,0.1-0.3,0.2-0.5,0.2c-0.2,0.1-0.4,0-0.5-0.1C15,20.7,14.5,20.6,13.9,20.9z M20.2,25.8
		c0,0.2-0.1,0.3-0.3,0.3c-0.8,0-1.6,0-2.3,0c-1,0-1.8-0.8-1.8-1.8c0-1,0.8-1.8,1.8-1.9c0.5,0,1,0,1.5,0c0.2,0,0.3-0.1,0.3-0.3
		c-0.1-0.8-0.6-1.3-1.4-1.3c-0.3,0-0.8-0.4-0.9-0.7c0,0,0.1-0.2,0.1-0.2c1.7-0.3,3.1,0.4,3.2,2.3c0,0.6,0,1.2,0,1.8c0,0,0,0,0,0
		C20.2,24.6,20.2,25.2,20.2,25.8z M25.8,20.2c-0.4,1.1-0.8,2.2-1.3,3.3c-0.7,1.7-1.4,3.4-2,5.1C22.4,28.9,22.2,29,22,29
		c-0.8,0-0.6,0-0.4-0.6c0.3-0.7,0.6-1.4,0.8-2.1c0-0.1,0.1-0.3,0-0.4c-0.6-1.9-1.3-3.8-1.9-5.7c0-0.1-0.1-0.2-0.1-0.4
		c0.3,0,0.6,0,0.9,0c0.1,0,0.2,0.2,0.2,0.3c0.4,1.3,0.9,2.6,1.3,3.9c0,0.1,0.1,0.2,0.2,0.4c0.1-0.2,0.1-0.3,0.2-0.4
		c0.5-1.3,1-2.6,1.5-4c0.1-0.2,0.2-0.4,0.5-0.3c0.1,0,0.2,0,0.4,0C25.9,19.9,25.9,19.9,25.8,20.2z"/>
</g>
</svg>
