<?xml version="1.0" encoding="utf-8"?>
<!-- Generator: Adobe Illustrator 26.2.1, SVG Export Plug-In . SVG Version: 6.00 Build 0)  -->
<svg version="1.1" id="Capa_1" xmlns="http://www.w3.org/2000/svg" xmlns:xlink="http://www.w3.org/1999/xlink" x="0px" y="0px"
	 viewBox="0 0 31.5 31.5" style="enable-background:new 0 0 31.5 31.5;" xml:space="preserve">
<style type="text/css">
	.st0{fill:#4D4D4D;}
	.st1{fill:#474854;}
</style>
<g>
	<path class="st1" d="M18.2,14.9c-0.2,0-0.5,0-0.7,0.1c-0.3,0.1-0.5,0.3-0.7,0.5c-0.2,0.2-0.4,0.6-0.5,1C16.1,16.9,16,17.4,16,18
		c0,0.9,0.2,1.7,0.5,2.2c0.4,0.5,0.9,0.8,1.6,0.8c0.2,0,0.4,0,0.6-0.1c0.2-0.1,0.4-0.1,0.6-0.2c0.2-0.1,0.3-0.2,0.5-0.3
		c0.1-0.1,0.3-0.2,0.4-0.3v-4.4c-0.3-0.2-0.6-0.4-0.9-0.5C18.9,14.9,18.6,14.9,18.2,14.9z"/>
	<path class="st1" d="M27,0H4.5C2,0,0,2,0,4.5V27c0,2.5,2,4.5,4.5,4.5H27c2.5,0,4.5-2,4.5-4.5V4.5C31.5,2,29.5,0,27,0z M11.3,22.6H9
		V9.7h2.4V22.6z M20.5,22.6l-0.1-1h0c-0.1,0.2-0.3,0.3-0.5,0.5c-0.2,0.2-0.4,0.3-0.6,0.4c-0.2,0.1-0.5,0.2-0.8,0.3
		c-0.3,0.1-0.6,0.1-0.9,0.1c-0.5,0-1-0.1-1.5-0.3c-0.5-0.2-0.9-0.5-1.3-0.8c-0.4-0.4-0.7-0.9-0.9-1.5c-0.2-0.6-0.3-1.3-0.3-2.1
		c0-0.8,0.1-1.5,0.3-2.2c0.2-0.6,0.5-1.2,0.9-1.6s0.8-0.8,1.3-1c0.5-0.2,1-0.3,1.6-0.3c0.3,0,0.5,0,0.7,0.1c0.2,0,0.4,0.1,0.6,0.2
		c0.2,0.1,0.4,0.2,0.6,0.3c0.2,0.1,0.3,0.2,0.5,0.3h0c0-0.1,0-0.3,0-0.5c0-0.2,0-0.5,0-0.8V8.7h2.3v11.2c0,0.6,0,1.1,0,1.6
		c0,0.4,0,0.8,0,1.2H20.5z"/>
</g>
</svg>
