<?xml version="1.0" encoding="utf-8"?>
<!-- Generator: Adobe Illustrator 26.2.1, SVG Export Plug-In . SVG Version: 6.00 Build 0)  -->
<svg version="1.1" id="Capa_1" xmlns="http://www.w3.org/2000/svg" xmlns:xlink="http://www.w3.org/1999/xlink" x="0px" y="0px"
	 viewBox="0 0 31.5 31.5" style="enable-background:new 0 0 31.5 31.5;" xml:space="preserve">
<style type="text/css">
	.st0{fill:#4D4D4D;}
	.st1{fill:#474854;}
</style>
<g>
	<path class="st1" d="M12.4,11.5H10v4h2.3c0.7,0,1.2-0.2,1.6-0.5c0.4-0.3,0.5-0.8,0.5-1.4c0-0.6-0.2-1.1-0.5-1.5
		S13.1,11.5,12.4,11.5z"/>
	<path class="st1" d="M26.9,0H4.5C2,0,0,2,0,4.5v22.4c0,2.5,2,4.5,4.5,4.5h22.4c2.5,0,4.5-2,4.5-4.5V4.5C31.5,2,29.4,0,26.9,0z
		 M15.8,16.5c-0.8,0.7-2,1.1-3.5,1.1H10v4.4H7.4V9.4h4.9c0.9,0,1.8,0.2,2.5,0.5c0.7,0.3,1.3,0.8,1.7,1.5c0.4,0.6,0.6,1.4,0.6,2.2
		C17.1,14.8,16.7,15.8,15.8,16.5z M24,15c-0.3,0-0.6-0.1-0.9-0.1c-1,0-1.6,0.3-1.9,1v6.1h-2.5v-9.4h2.4l0.1,1.1
		c0.5-0.9,1.2-1.3,2.1-1.3c0.3,0,0.5,0,0.8,0.1L24,15z"/>
</g>
</svg>
