<?xml version="1.0" encoding="utf-8"?>
<!-- Generator: Adobe Illustrator 26.2.1, SVG Export Plug-In . SVG Version: 6.00 Build 0)  -->
<svg version="1.1" xmlns="http://www.w3.org/2000/svg" xmlns:xlink="http://www.w3.org/1999/xlink" x="0px" y="0px"
	 viewBox="0 0 49.1 22.5" style="enable-background:new 0 0 49.1 22.5;" xml:space="preserve">
<style type="text/css">
	.st0{fill:#FFFFFF;}
	.st1{fill:#FCFCFC;}
</style>
<g id="background_1_">
</g>
<g id="objects_1_">
	<path class="st1" d="M23.8,6.3c-0.4,0-0.8,0.3-0.8,0.8c0,0.4,0.3,0.8,0.8,0.8h2.5v2.5c0,0.4,0.3,0.8,0.8,0.8c0.4,0,0.8-0.3,0.8-0.8
		V7.8h2.5c0.4,0,0.8-0.3,0.8-0.8c0-0.4-0.3-0.8-0.8-0.8h-2.5V3.8c0-0.4-0.3-0.8-0.8-0.8c-0.4,0-0.8,0.3-0.8,0.8v2.5H23.8z"/>
	<path class="st1" d="M32,12.9c-0.3,0.2-0.6,0.4-0.9,0.6l5.6,7.3c0.5,0.7,1.4,0.9,2,0.5c0.6-0.4,0.6-1.4,0.1-2.1c0,0,0,0-0.1-0.1
		l-6-7C32.5,12.4,32.3,12.6,32,12.9z"/>
	<path class="st1" d="M21.4,10.8c1,1.5,2.5,2.6,4.3,2.9c1.8,0.4,3.6,0,5.1-1c1.5-1,2.6-2.5,2.9-4.3c0.4-1.8,0-3.6-1-5.1
		c-1-1.5-2.5-2.6-4.3-2.9c-1.8-0.4-3.6,0-5.1,1C20.2,3.4,19.3,7.7,21.4,10.8z M24.4,3c1.1-0.7,2.4-1,3.6-0.7c1.3,0.3,2.4,1,3.1,2.1
		c0.7,1.1,1,2.4,0.7,3.6c-0.3,1.3-1,2.4-2.1,3.1c-1.1,0.7-2.4,1-3.6,0.7c-1.3-0.3-2.4-1-3.1-2.1C21.6,7.5,22.2,4.5,24.4,3z"/>
	<path class="st1" d="M18.5,2.8c-1.3-0.6-2.8-0.7-4.1-0.2C13,3.1,12,4,11.3,5.3c-0.6,1.3-0.7,2.8-0.2,4.1c0.5,1.4,1.4,2.4,2.7,3.1
		c1.3,0.6,2.8,0.7,4.1,0.2c1.4-0.5,2.4-1.4,3.1-2.7C22.3,7.3,21.2,4.1,18.5,2.8z M19.6,9.3c-0.4,0.9-1.2,1.6-2.2,1.9
		c-1,0.3-2,0.3-2.9-0.2c-0.9-0.4-1.6-1.2-1.9-2.2c-0.3-1-0.3-2,0.2-2.9c0.4-0.9,1.2-1.6,2.2-1.9c1-0.3,2-0.3,2.9,0.2
		C19.7,5.1,20.5,7.4,19.6,9.3z M12.3,12.5l-3.8,6.3c0,0,0,0,0,0.1c-0.3,0.6-0.2,1.3,0.4,1.6c0.5,0.3,1.2,0,1.5-0.6l3.5-6.5
		c-0.3-0.1-0.6-0.2-0.8-0.4C12.8,12.9,12.6,12.7,12.3,12.5z"/>
	<path class="st1" d="M13.7,7.2c-0.3,0-0.6,0.3-0.6,0.6c0,0.3,0.3,0.6,0.6,0.6h5.1c0.3,0,0.6-0.3,0.6-0.6c0-0.3-0.3-0.6-0.6-0.6
		H13.7z"/>
	<path class="st1" d="M7.4,2.9H0.7V1.1h9.5v1.6l-6.9,8.5v0.1h7V13H0.4v-1.6L7.4,2.9L7.4,2.9z"/>
	<path class="st1" d="M37.1,13h-2v-12h3.1l3.6,7.5l3.6-7.5h3.1v12h-2V3.7L42.4,12h-1.1l-4.2-8.3V13z"/>
	<g>
		<path class="st1" d="M19.3,22.5v-5.9h1.2v5.9H19.3z"/>
		<path class="st1" d="M22.8,18.7v3.8h-1.2v-5.9h0.9l3.1,3.9v-3.9h1.1v5.9h-1L22.8,18.7z"/>
	</g>
</g>
</svg>
