<?xml version="1.0" encoding="utf-8"?>
<!-- Generator: Adobe Illustrator 26.2.1, SVG Export Plug-In . SVG Version: 6.00 Build 0)  -->
<svg version="1.1" xmlns="http://www.w3.org/2000/svg" xmlns:xlink="http://www.w3.org/1999/xlink" x="0px" y="0px"
	 viewBox="0 0 49.1 22.5" style="enable-background:new 0 0 49.1 22.5;" xml:space="preserve">
<style type="text/css">
	.st0{fill:#FFFFFF;}
	.st1{fill:#FCFCFC;}
</style>
<g id="background_1_">
</g>
<g id="objects_1_">
	<g>
		<path class="st0" d="M23.8,6.2C23.3,6.2,23,6.5,23,7c0,0.4,0.3,0.8,0.8,0.8h2.5v2.5c0,0.4,0.3,0.8,0.8,0.8c0.4,0,0.8-0.3,0.8-0.8
			V7.7h2.5C30.6,7.7,31,7.4,31,7c0-0.4-0.3-0.8-0.8-0.8h-2.5V3.7C27.8,3.3,27.4,3,27,3c-0.4,0-0.8,0.3-0.8,0.8v2.5H23.8z"/>
		<path class="st0" d="M32,12.8c-0.3,0.2-0.6,0.4-0.9,0.6l5.6,7.3c0.5,0.7,1.4,0.9,2,0.5c0.6-0.4,0.6-1.4,0.1-2.1c0,0,0,0-0.1-0.1
			l-6-7C32.5,12.3,32.3,12.5,32,12.8z"/>
		<path class="st0" d="M21.4,10.7c1,1.5,2.5,2.6,4.3,2.9c1.8,0.4,3.6,0,5.1-1c1.5-1,2.6-2.5,2.9-4.3c0.4-1.8,0-3.6-1-5.1
			c-1-1.5-2.5-2.6-4.3-2.9c-1.8-0.4-3.6,0-5.1,1C20.2,3.3,19.3,7.6,21.4,10.7z M24.4,2.9c1.1-0.7,2.4-1,3.6-0.7
			c1.3,0.3,2.4,1,3.1,2.1c0.7,1.1,1,2.4,0.7,3.6c-0.3,1.3-1,2.4-2.1,3.1c-1.1,0.7-2.4,1-3.6,0.7c-1.3-0.3-2.4-1-3.1-2.1
			C21.6,7.4,22.2,4.4,24.4,2.9z"/>
		<path class="st0" d="M18.5,2.7c-1.3-0.6-2.8-0.7-4.1-0.2C13,3,12,3.9,11.3,5.2c-0.6,1.3-0.7,2.8-0.2,4.1c0.5,1.4,1.4,2.4,2.7,3.1
			c1.3,0.6,2.8,0.7,4.1,0.2c1.4-0.5,2.4-1.4,3.1-2.7C22.3,7.2,21.2,4,18.5,2.7z M19.6,9.2c-0.4,0.9-1.2,1.6-2.2,1.9
			c-1,0.3-2,0.3-2.9-0.2c-0.9-0.4-1.6-1.2-1.9-2.2c-0.3-1-0.3-2,0.2-2.9C13.2,5,14,4.3,14.9,4c1-0.3,2-0.3,2.9,0.2
			C19.7,5,20.5,7.3,19.6,9.2z M12.3,12.4l-3.8,6.3c0,0,0,0,0,0.1c-0.3,0.6-0.2,1.3,0.4,1.6c0.5,0.3,1.2,0,1.5-0.6l3.5-6.5
			c-0.3-0.1-0.6-0.2-0.8-0.4C12.8,12.8,12.6,12.6,12.3,12.4z"/>
		<path class="st0" d="M13.7,7.1c-0.3,0-0.6,0.3-0.6,0.6c0,0.3,0.3,0.6,0.6,0.6h5.1c0.3,0,0.6-0.3,0.6-0.6c0-0.3-0.3-0.6-0.6-0.6
			H13.7z"/>
		<path class="st0" d="M7.4,2.8H0.7V1h9.5v1.6L3.3,11v0.1h7v1.9H0.4v-1.6L7.4,2.8L7.4,2.8z"/>
		<path class="st0" d="M37.1,12.9h-2V1h3.1l3.6,7.5L45.5,1h3.1v12h-2V3.6l-4.2,8.3h-1.1l-4.2-8.3V12.9z"/>
		<g>
			<path class="st0" d="M17,22.4c-0.4,0-0.8-0.1-1.2-0.3c-0.4-0.2-0.7-0.4-0.9-0.7s-0.5-0.6-0.6-1c-0.1-0.4-0.2-0.7-0.2-1.1
				c0-0.4,0.1-0.8,0.2-1.1c0.1-0.4,0.4-0.7,0.6-1c0.3-0.3,0.6-0.5,0.9-0.7c0.4-0.2,0.7-0.2,1.2-0.2c0.4,0,0.8,0.1,1.2,0.3
				s0.7,0.4,0.9,0.7c0.3,0.3,0.4,0.6,0.6,1c0.1,0.4,0.2,0.7,0.2,1.1c0,0.4-0.1,0.8-0.2,1.1s-0.3,0.7-0.6,1c-0.3,0.3-0.6,0.5-0.9,0.7
				C17.8,22.3,17.5,22.4,17,22.4z M15.3,19.4c0,0.3,0,0.5,0.1,0.7c0.1,0.2,0.2,0.5,0.3,0.6c0.1,0.2,0.3,0.3,0.5,0.4
				c0.2,0.1,0.5,0.2,0.7,0.2c0.3,0,0.5-0.1,0.7-0.2c0.2-0.1,0.4-0.3,0.5-0.5c0.1-0.2,0.3-0.4,0.3-0.6c0.1-0.2,0.1-0.5,0.1-0.7
				c0-0.3,0-0.5-0.1-0.7s-0.2-0.4-0.3-0.6c-0.2-0.2-0.3-0.3-0.5-0.4s-0.5-0.2-0.7-0.2c-0.3,0-0.5,0.1-0.7,0.2
				c-0.2,0.1-0.4,0.3-0.5,0.5c-0.1,0.2-0.3,0.4-0.3,0.6S15.3,19.2,15.3,19.4z"/>
			<path class="st0" d="M23.2,22.4c-0.5,0-0.8-0.1-1.2-0.2c-0.3-0.2-0.6-0.4-0.8-0.6s-0.3-0.6-0.4-0.9s-0.1-0.7-0.1-1.1v-2.9h1.1
				v2.9c0,0.2,0,0.5,0.1,0.7c0.1,0.2,0.1,0.4,0.2,0.6c0.1,0.2,0.2,0.3,0.4,0.4c0.2,0.1,0.4,0.2,0.7,0.2c0.3,0,0.5-0.1,0.7-0.2
				c0.2-0.1,0.3-0.2,0.4-0.4c0.1-0.2,0.2-0.4,0.2-0.6s0.1-0.4,0.1-0.7v-2.9h1.1v2.9c0,0.4,0,0.8-0.1,1.1c-0.1,0.3-0.2,0.6-0.4,0.9
				c-0.2,0.3-0.5,0.5-0.8,0.6C24,22.3,23.7,22.4,23.2,22.4z"/>
			<path class="st0" d="M31.1,17.6h-1.8v4.7h-1.1v-4.7h-1.8v-1h4.8V17.6z"/>
		</g>
	</g>
</g>
</svg>
