<?xml version="1.0" encoding="utf-8"?>
<!-- Generator: Adobe Illustrator 26.2.1, SVG Export Plug-In . SVG Version: 6.00 Build 0)  -->
<svg version="1.1" id="Capa_1" xmlns="http://www.w3.org/2000/svg" xmlns:xlink="http://www.w3.org/1999/xlink" x="0px" y="0px"
	 viewBox="0 0 216.7 179.6" style="enable-background:new 0 0 216.7 179.6;" xml:space="preserve">
<style type="text/css">
	.st0{opacity:0.6;fill:#FFFFFF;enable-background:new    ;}
</style>
<path class="st0" d="M109.5,1.6C50.3,1.6,2.3,39.6,2.3,86.4c0,20.5,9.2,39.3,24.5,54l0,0l-18.1,36l40-20.1l0,0
	c18.7,10,39.6,15.1,60.8,14.9c59.2,0,107.2-38,107.2-84.9S168.7,1.6,109.5,1.6z M109.5,39.6c10.2,0,18.6,8.3,18.6,18.5
	s-8.3,18.6-18.5,18.6S91,68.5,91,58.2l0,0l0,0C91,48,99.3,39.7,109.5,39.6z M142,133.2H77.1v-23.1c0-16.4,13.3-29.7,29.7-29.7l0,0
	h5.5c16.4,0,29.7,13.3,29.7,29.7V133.2z"/>
</svg>
