<?xml version="1.0" encoding="utf-8"?>
<!-- Generator: Adobe Illustrator 26.2.1, SVG Export Plug-In . SVG Version: 6.00 Build 0)  -->
<svg version="1.1" id="Capa_1" xmlns="http://www.w3.org/2000/svg" xmlns:xlink="http://www.w3.org/1999/xlink" x="0px" y="0px"
	 viewBox="0 0 208.4 186.1" style="enable-background:new 0 0 208.4 186.1;" xml:space="preserve">
<style type="text/css">
	.st0{opacity:0.6;}
	.st1{fill:#FFFFFF;}
</style>
<g id="RO7qPU" class="st0">
	<path class="st1" d="M156.6,38.8c1.6,0.1,2.7,0.2,3.8,0.2c8.5,0,17,0,25.5,0c6.4,0,9.7,3.3,9.7,9.6c0,29.2,0,58.5,0,87.7
		c0,6.3-3.4,9.7-9.6,9.7c-54.7,0-109.4,0-164.1,0c-6.2,0-9.6-3.4-9.6-9.7c0-29.1,0-58.2,0-87.3c0-6.5,3.3-9.8,9.8-9.9
		c7.5,0,15,0,22.4,0c23.9,0,47.8,0,71.7-0.1c1.2,0,3-0.3,3.5-1.1c1.5-3,2.9-6.1,4.1-9.2h-4.1c-32.4,0-64.8,0-97.2,0
		C9.8,28.7,2,36.6,2,49.3c0,28.7,0,57.5,0,86.2c0,13.2,7.6,20.9,20.8,20.9c20.3,0,40.6,0,60.8,0H88c-0.9,3.3-1.7,6.1-2.5,8.9
		c-2.3,8.4-2.3,8.4-11,8.4c-8.8,0-17.7-0.1-26.5,0c-3.9,0-6.6,2.8-6.5,6.3c0.1,3.4,2.8,5.9,6.5,6.1c0.9,0,1.8,0,2.7,0H135
		c7.9,0,15.9,0.1,23.8-0.1c2-0.1,4.6-0.8,5.6-2.2c1.2-1.9,1.6-4.2,1.1-6.5c-0.6-2.8-3.3-3.8-6.2-3.8c-10,0-19.9-0.2-29.9,0.1
		c-3.9,0.1-5.7-1-6.3-4.9c-0.7-4.1-2.1-8.1-3.3-12.5h4.4c20.7,0,41.4,0.1,62.2,0c11.4,0,19.5-8.1,19.5-19.5c0-29.6,0-59.1,0-88.7
		c0-11-7.9-19.2-18.9-19.5c-7.4-0.2-14.7-0.1-22.1,0c-1.1,0-2.1,0.4-2.9,1.2C160.2,32.6,158.5,35.5,156.6,38.8z M162.5,15.7
		c-0.3-5.7-4-10.6-9.4-12.5c-6.5-2.1-13,1-15.9,7.9c-9.9,23.2-19.8,46.4-29.6,69.6c-0.6,1.4-1.1,3-1.2,4.6c-0.3,5.1,4.9,9,9.4,6.8
		c2-1.1,3.6-2.6,4.8-4.6c13.2-21.6,26.4-43.3,39.4-65C161.1,20.5,161.6,18,162.5,15.7z M87.2,113.8c2.4,5.8,13.2,8.3,21.1,3.8
		s11.7-15.2,8.1-22.4c-6.7,0.3-8.7-0.8-13.2-7.2c-8.1,2.2-10.9,6.6-10.1,15.3C93.9,110.2,93.3,111.3,87.2,113.8z"/>
	<path class="st1" d="M156.6,38.8c2-3.3,3.6-6.2,5.5-9c0.8-0.8,1.8-1.2,2.9-1.2c7.4-0.1,14.7-0.2,22.1,0c11,0.3,18.9,8.4,18.9,19.5
		c0,29.6,0,59.1,0,88.7c0,11.4-8.1,19.5-19.5,19.5c-20.7,0-41.4,0-62.2,0h-4.4c1.2,4.4,2.5,8.4,3.3,12.5c0.7,3.8,2.4,5,6.3,4.9
		c10-0.3,19.9-0.1,29.9-0.1c2.9,0,5.5,1,6.2,3.8c0.5,2.2,0.1,4.5-1.1,6.5c-1,1.4-3.7,2.1-5.6,2.2c-7.9,0.2-15.9,0.1-23.8,0.1H50.7
		c-0.9,0-1.8,0-2.7,0c-3.7-0.2-6.4-2.8-6.5-6.1c-0.1-3.5,2.6-6.3,6.5-6.3c8.8-0.1,17.7-0.1,26.5,0c8.6,0,8.6,0,11-8.4
		c0.8-2.8,1.6-5.6,2.5-8.9h-4.5c-20.3,0-40.6,0-60.8,0c-13.2,0-20.8-7.7-20.8-20.9c0-28.7,0-57.5,0-86.2c0-12.7,7.9-20.6,20.5-20.6
		c32.4,0,64.8,0,97.2,0h4.1c-1.2,3.1-2.6,6.2-4.1,9.2c-0.4,0.8-2.3,1.1-3.5,1.1C92.2,39,68.3,39,44.4,39c-7.5,0-15,0-22.4,0
		c-6.5,0-9.8,3.3-9.8,9.9c0,29.1,0,58.2,0,87.3c0,6.3,3.4,9.7,9.6,9.7c54.7,0,109.4,0,164.1,0c6.2,0,9.6-3.4,9.6-9.7
		c0-29.2,0-58.5,0-87.7c0-6.3-3.4-9.6-9.7-9.6c-8.5,0-17,0-25.5,0C159.3,39,158.2,38.8,156.6,38.8z"/>
	<path class="st1" d="M162.5,15.7c-0.9,2.3-1.4,4.8-2.6,6.9c-13,21.7-26.2,43.4-39.4,65c-1.2,1.9-2.8,3.5-4.8,4.6
		c-4.5,2.2-9.7-1.7-9.4-6.8c0.2-1.6,0.6-3.1,1.2-4.6c9.8-23.2,19.7-46.4,29.6-69.6c2.9-6.9,9.4-10,15.9-7.9
		C158.5,5.1,162.2,10,162.5,15.7z"/>
	<path class="st1" d="M87.2,113.8c6.1-2.4,6.7-3.5,6-10.4c-0.9-8.8,2-13.1,10.1-15.3c4.5,6.4,6.5,7.5,13.2,7.2
		c3.6,7.2-0.3,17.9-8.1,22.4S89.6,119.6,87.2,113.8z"/>
</g>
</svg>
