<?xml version="1.0" encoding="utf-8"?>
<!-- Generator: Adobe Illustrator 26.2.1, SVG Export Plug-In . SVG Version: 6.00 Build 0)  -->
<svg version="1.1" id="Capa_1" xmlns="http://www.w3.org/2000/svg" xmlns:xlink="http://www.w3.org/1999/xlink" x="0px" y="0px"
	 viewBox="0 0 267.5 254.7" style="enable-background:new 0 0 267.5 254.7;" xml:space="preserve">
<style type="text/css">
	.st0{opacity:0.7;fill:#FFFFFF;enable-background:new    ;}
</style>
<path class="st0" d="M225,125.7c0-6.9-5.7-10.9-9.1-12.7c-5.8-3.1-14.8-3.2-21.9-2.5c-14.1,1.7-27.8,10.7-39.4,12.7l-2.5-33.9
	c26.4-0.5,47.5-0.9,49.7-24.2c0.9-9.3-1.8-20.1-4.3-30.3c-3.4-14.2-12-32.2-27.3-32.2s-57.9,0-73.2,0s-24,18-27.5,32.2
	c-2.5,10.2-5.2,21-4.3,30.3c2.2,23.4,23.3,23.7,49.7,24.2l-2.5,33.9c-11.5-1.9-25.4-11.1-39.4-12.7c-7.1-0.8-15.9-0.6-21.9,2.5
	c-3.5,1.8-9.1,5.8-9.1,12.7c0.1,3,1.8,4.7,3.6,6.7c6.6,7.3,19.9,10.7,31.5,12.7c-6.7,7.3-8.9,20.7-11.5,34.3
	c-3,15.9-11.3,64.9-12.8,72.7h6.7l9.5-53h5.4c0,0,2.3-15.3,3.8-23.7c1.2-8.4,3.2-17.7,7-23.1c4.9-7,26.4-5.4,37.3-4.8
	c6.1,0.4,15.3,0.3,21.2,0c10.9-0.5,32.4-2.2,37.3,4.8c3.8,5.3,5.8,14.6,7,23.1c1.4,8.4,3.8,23.7,3.8,23.7h5.4l9.5,53h6.7
	c-1.6-7.9-9.8-56.9-12.8-72.7c-2.6-13.6-4.8-27.1-11.5-34.3c11.7-2.1,25-5.6,31.5-12.7C223.2,130.4,224.9,128.7,225,125.7z"/>
</svg>
