<?xml version="1.0" encoding="utf-8"?>
<!-- Generator: Adobe Illustrator 26.2.1, SVG Export Plug-In . SVG Version: 6.00 Build 0)  -->
<svg version="1.1" id="Capa_1" xmlns="http://www.w3.org/2000/svg" xmlns:xlink="http://www.w3.org/1999/xlink" x="0px" y="0px"
	 viewBox="0 0 222.6 207.1" style="enable-background:new 0 0 222.6 207.1;" xml:space="preserve">
<style type="text/css">
	.st0{opacity:0.6;fill:#FFFFFF;enable-background:new    ;}
</style>
<path class="st0" d="M111.8,2.3c-1.5,0-3,0.5-4.1,1.5l-19,15.8c-2.7,2.3-3.1,6.3-0.8,9c2.3,2.7,6.3,3.1,9,0.9l0,0l8.5-7v26.1
	L43.7,81.3c-0.4,0.2-0.9,0.5-1.2,0.8l-0.2,0.1c-1,0.9-1.7,2.1-2,3.4v0.1c-0.1,0.4-0.2,0.9-0.2,1.4v69.1l-22.8,13.1l1.8-10.8
	c0.6-3.5-1.8-6.8-5.3-7.4c-3.5-0.6-6.8,1.8-7.4,5.3l0,0l-4.1,24.3c0,0.1,0,0.2,0,0.2c-0.1,0.6-0.1,1.1,0,1.7
	c0.1,0.6,0.2,1.1,0.4,1.6l0,0c0.2,0.5,0.5,1,0.9,1.4c0.2,0.2,0.4,0.4,0.6,0.6c0.2,0.2,0.4,0.4,0.6,0.5l0,0c0.2,0.1,0.4,0.2,0.5,0.4
	l0.2,0.1c0.2,0.1,0.3,0.2,0.5,0.2l0.2,0.1l0.2,0.1l23.1,8.6c3.3,1.3,7-0.4,8.3-3.7l0,0l0,0c1.2-3.3-0.5-7-3.8-8.3l-10.3-3.8
	l22.9-13.2l62.1,32.9l0,0c0.7,0.4,1.5,0.6,2.3,0.7h0.2h0.5h0.5h0.3c0.4,0,0.8-0.1,1.1-0.2l0,0c0.4-0.1,0.8-0.3,1.1-0.5l62-32.9
	l22.9,13.2l-10.3,3.8c-3.3,1.2-5,4.9-3.8,8.3l0,0c1.2,3.3,4.9,5,8.3,3.8l23.2-8.6c0.6-0.2,1.2-0.5,1.7-0.9l0,0
	c0.2-0.2,0.4-0.3,0.6-0.5l0.2-0.2c0.1-0.1,0.2-0.2,0.3-0.4l0.1-0.2l0.1-0.1l0.1-0.1l0.1-0.2c0-0.1,0.1-0.1,0.1-0.2
	c0.9-1.5,1.1-3.3,0.6-5l-4-23.7c-0.7-3.5-4-5.8-7.5-5.1c-3.4,0.6-5.7,3.8-5.2,7.3l1.8,10.8l-22.7-13.1v-69c0-1.3-0.4-2.6-1.1-3.7
	l-0.1-0.1c-0.6-0.9-1.5-1.6-2.5-2.1l-61.4-32.6V22.5l8.5,7c2.7,2.3,6.8,1.9,9.1-0.8l0,0l0,0c2.2-2.7,1.9-6.7-0.9-9L116,3.9l-0.1-0.1
	l-0.1-0.1c-0.2-0.1-0.3-0.3-0.5-0.4l-0.2-0.1L115,3.1L114.9,3l-0.4,0l-0.3-0.1l-0.3-0.1l-0.2-0.1l0,0c-0.2-0.1-0.4-0.1-0.6-0.2h-0.3
	h-0.3h-0.2h-0.1H112h-0.3L111.8,2.3z M111.8,59.7L163.2,87l-51.5,27.3L60.3,87L111.8,59.7z M53,97.7l52.3,27.8v58.3L53,156V97.7z
	 M170.5,97.7V156l-52.3,27.7v-58.2L170.5,97.7z"/>
</svg>
