<?xml version="1.0" encoding="utf-8"?>
<!-- Generator: Adobe Illustrator 26.2.1, SVG Export Plug-In . SVG Version: 6.00 Build 0)  -->
<svg version="1.1" id="Capa_1" xmlns="http://www.w3.org/2000/svg" xmlns:xlink="http://www.w3.org/1999/xlink" x="0px" y="0px"
	 viewBox="0 0 216.7 179.6" style="enable-background:new 0 0 216.7 179.6;" xml:space="preserve">
<style type="text/css">
	.st0{opacity:0.6;fill:#FFFFFF;enable-background:new    ;}
</style>
<ellipse transform="matrix(8.248055e-02 -0.9966 0.9966 8.248055e-02 -8.8738 198.5615)" class="st0" cx="103.4" cy="104.1" rx="36.5" ry="36.5"/>
<path class="st0" d="M169.2,38.6h-17.7l-10.4-15.9c-5.2-8-14.1-12.7-23.6-12.7H89.3c-9.5,0-18.4,4.8-23.6,12.7L55.2,38.6H37.5
	c-15.6,0-28.2,12.7-28.2,28.2v74.7c0,15.6,12.7,28.2,28.2,28.2h131.7c15.6,0,28.2-12.7,28.2-28.2V66.8
	C197.4,51.3,184.8,38.6,169.2,38.6z M39.3,81.1c-6.8,0-12.4-5.6-12.4-12.4s5.6-12.4,12.4-12.4s12.4,5.6,12.4,12.4
	S46.1,81.1,39.3,81.1z M86,33.3h34.6c2.6,0,4.7,2.1,4.7,4.7s-2.1,4.7-4.7,4.7H86c-2.6,0-4.7-2.1-4.7-4.7S83.5,33.3,86,33.3z
	 M103.4,150c-25.3,0-45.9-20.6-45.9-45.9s20.6-45.9,45.9-45.9s45.9,20.6,45.9,45.9S128.6,150,103.4,150z"/>
</svg>
