<?xml version="1.0" encoding="utf-8"?>
<!-- Generator: Adobe Illustrator 26.2.1, SVG Export Plug-In . SVG Version: 6.00 Build 0)  -->
<svg version="1.1" id="Capa_1" xmlns="http://www.w3.org/2000/svg" xmlns:xlink="http://www.w3.org/1999/xlink" x="0px" y="0px"
	 viewBox="0 0 52.8 52.4" style="enable-background:new 0 0 52.8 52.4;" xml:space="preserve">
<style type="text/css">
	.st0{fill:#FFFFFF;}
</style>
<path class="st0" d="M43.1,40.2c-2.3,2.4-4.5,4.8-6.8,7.1c-0.2,0.2-0.2,0.4,0,0.6c0.3,0.2,0.5,0.4,0.7,0.7c0.3,0.3,0.5,0.3,0.8,0
	c1.8-1.6,3.6-3.2,5.5-4.7c2.2-1.8,4.5-3.4,6.8-5.1c0.1-0.1,0.2-0.2,0.4-0.3c-0.2-0.1-0.3-0.3-0.4-0.4c-4.2-3-8.2-6.2-12.1-9.7
	c-0.6-0.5-0.5-0.5-1.1,0c-0.9,0.8-0.9,0.8,0,1.7c2.1,2.2,4.3,4.5,6.4,6.8c0.1,0.1,0.1,0.1,0.2,0.2c-0.1,0-0.2,0-0.3,0
	c-3.4,0-6.9-0.1-10.2-0.7c-7.1-1.4-13.2-4.6-18.2-9.9c-4-4.3-6.6-9.4-7.9-15.1c-0.7-3.1-1-6.2-1-9.4c0-0.7,0-0.7-0.7-0.7
	c-0.4,0-0.7,0-1.1,0C3.8,1.4,3.6,1.6,3.6,2c0,2.7,0.1,5.4,0.6,8.1c0.9,5.1,2.7,9.8,5.6,14.1c4.7,6.9,11.1,11.5,19,13.9
	c3.2,1,6.5,1.5,9.8,1.6c1.4,0,2.8,0,4.2,0.1c0.2,0,0.3,0,0.5,0c0,0,0,0.1,0,0.1C43.3,40,43.2,40.1,43.1,40.2L43.1,40.2z"/>
</svg>
