<?xml version="1.0" encoding="utf-8"?>
<!-- Generator: Adobe Illustrator 26.2.1, SVG Export Plug-In . SVG Version: 6.00 Build 0)  -->
<svg version="1.1" id="Capa_1" xmlns="http://www.w3.org/2000/svg" xmlns:xlink="http://www.w3.org/1999/xlink" x="0px" y="0px"
	 viewBox="0 0 403.5 403.5" style="enable-background:new 0 0 403.5 403.5;" xml:space="preserve">
<style type="text/css">
	.st0{opacity:0.8;fill:#FFFFFF;}
</style>
<g>
	<path class="st0" d="M96.3,0.4c70,0,140,0,210,0c4.8,0.7,9.6,1.1,14.3,2c47.3,8.8,82.1,50.4,82.3,99.3c0.3,66.7,0.2,133.4,0,200.1
		c-0.1,24.9-8.2,47.1-24.6,65.9C357.6,391.6,331,403,299.6,403c-64.3,0.1-128.7,0.1-193,0c-6.9,0-13.9-0.3-20.7-1.5
		C48.3,395,22,373.9,7.5,338.7c-3.7-8.9-4.9-18.9-7.2-28.4c0-72.4,0-144.7,0-217.1c0.5-2.6,1-5.1,1.4-7.7
		c8.1-41.8,32.6-69,73.4-81.2C82,2.3,89.2,1.7,96.3,0.4z M217.5,326c0-1.9,0-3.3,0-4.7c0-25-0.2-50.1,0.1-75.1
		c0.1-7.7,0.8-15.5,2.4-23c2.6-11.8,9.9-19.4,22.3-21.2c3.3-0.5,6.8-0.5,10.2-0.3c10.6,0.7,18.3,6,21.4,16.2
		c2.2,7.2,3.8,14.8,3.9,22.3c0.5,27,0.2,54,0.3,81c0,1.5,0,3.1,0,4.8c16.2,0,32,0,48.1,0c0.1-1.3,0.2-2.4,0.2-3.6
		c0-28.7,0.4-57.4-0.2-86.1c-0.2-12.5-1.4-25.1-3.6-37.4c-2.7-14.4-10.3-26-24.2-32.4c-15.5-7.2-31.9-7.8-48.5-5.2
		c-13.9,2.2-26,8-33.9,20.4c-0.2,0.4-0.8,0.5-1.8,1.2c0-7.8,0-15.1,0-22.4c-15.2,0-29.9,0-44.6,0c0,55.3,0,110.3,0,165.5
		C185.7,326,201.3,326,217.5,326z M77.2,160.3c0,55.4,0,110.5,0,165.6c19.2,0,38.1,0,57,0c0-55.4,0-110.4,0-165.6
		C115.1,160.3,96.4,160.3,77.2,160.3z M134.8,105c-0.2-16-13.6-29.2-29.5-29.1C89.2,76.1,75.9,89.4,76,105.4
		c0.1,16.1,13.8,29.7,29.7,29.3C121.7,134.3,134.9,120.8,134.8,105z"/>
</g>
</svg>
