<?xml version="1.0" encoding="utf-8"?>
<!-- Generator: Adobe Illustrator 26.2.1, SVG Export Plug-In . SVG Version: 6.00 Build 0)  -->
<svg version="1.1" id="Capa_1" xmlns="http://www.w3.org/2000/svg" xmlns:xlink="http://www.w3.org/1999/xlink" x="0px" y="0px"
	 viewBox="0 0 31.5 31.5" style="enable-background:new 0 0 31.5 31.5;" xml:space="preserve">
<style type="text/css">
	.st0{fill:#4D4D4D;}
	.st1{fill:#474854;}
</style>
<g>
	<path class="st1" d="M26.9,0H4.5C2,0,0,2,0,4.5v22.4c0,2.5,2,4.5,4.5,4.5h22.4c2.5,0,4.5-2,4.5-4.5V4.5C31.5,2,29.4,0,26.9,0z
		 M11.5,4.7C11.5,4.7,11.5,4.7,11.5,4.7c0,0.4,0,0.8-0.1,1.2c-0.3,2.7-0.6,5.4-0.9,8.1c-0.4,3.3-0.7,6.5-1.1,9.8
		c0,0.2-0.1,0.4-0.3,0.6c-0.3,0.2-0.5,0.4-0.8,0.6C9.3,18.2,10.4,11.4,11.5,4.7z M24,23.6c-2.5,0.9-5.1,1.6-7.7,2.1
		c-1.8,0.4-3.7,0.6-5.5,0.9c-0.1,0-0.1,0-0.1,0c-0.4,0-0.7,0-1.1,0c-0.3-0.1-0.6-0.1-0.9-0.2c-0.4-0.1-0.4-0.2-0.2-0.5
		c0.3-0.4,0.6-0.7,1-1c0.2-0.1,0.4-0.2,0.6-0.2c1.1-0.2,2.3-0.3,3.4-0.4c0,0,0.1,0,0.1,0c-0.1,0.2-0.1,0.4-0.2,0.6
		c0.2,0.1,0.4,0.2,0.7,0.2c1.8,0.1,3.5-0.3,5.2-0.8c1-0.3,2-0.7,3.1-1.1c0.4-0.1,0.9-0.1,1.3-0.2c0.7-0.1,1.3-0.1,2-0.2
		c0,0,0,0.1,0,0.1C25.1,23.1,24.6,23.4,24,23.6z M25,22.1c-0.5,0-1,0.1-1.5,0.1c-0.2,0-0.3,0-0.5-0.2c-0.5-0.9-1-1.8-1.5-2.7
		c-0.1-0.2-0.2-0.2-0.4-0.2c-2.1,0.1-4.3,0.3-6.4,0.4c0,0-0.1,0-0.2,0c-0.1,1.3-0.1,2.5-0.2,3.8c-1.4,0.2-2.7,0.3-4.1,0.5
		c0-0.1,0-0.2,0-0.2c0.3-2.3,0.5-4.7,0.8-7c0.2-1.7,0.4-3.4,0.6-5.2c0.3-2.3,0.5-4.7,0.8-7c0-0.2,0.1-0.5,0.1-0.7c0,0,0,0,0.1,0
		C13.1,3.9,13.7,4,14.4,4c0.8,0,1.3,0.3,1.8,1.1c3.3,5.5,6.7,11,10.1,16.6c0,0.1,0.1,0.2,0.2,0.3C25.9,22,25.4,22.1,25,22.1z"/>
	<path class="st1" d="M14.8,8.1c-0.1,2.6-0.2,5.3-0.2,7.9c1.6,0,3.2-0.1,4.8-0.1c-1.5-2.6-3-5.3-4.5-7.9C14.9,8.1,14.9,8.1,14.8,8.1
		z"/>
</g>
</svg>
