<?xml version="1.0" encoding="utf-8"?>
<!-- Generator: Adobe Illustrator 26.2.1, SVG Export Plug-In . SVG Version: 6.00 Build 0)  -->
<svg version="1.1" id="Capa_1" xmlns="http://www.w3.org/2000/svg" xmlns:xlink="http://www.w3.org/1999/xlink" x="0px" y="0px"
	 viewBox="0 0 27.3 27.3" style="enable-background:new 0 0 27.3 27.3;" xml:space="preserve">
<style type="text/css">
	.st0{fill:#4D4D4D;}
	.st1{fill:#474854;}
</style>
<g>
	<path class="st0" d="M5.6,16.1L7,17.5c0.3,0.3,0.3,0.8,0,1.1c-0.1,0.1-0.3,0.2-0.5,0.2S6.1,18.7,6,18.6l-1.4-1.4l-1.8,1.8l1.4,1.4
		c0.3,0.3,0.3,0.8,0,1.1c-0.1,0.1-0.3,0.2-0.5,0.2c-0.2,0-0.4-0.1-0.5-0.2l-1.4-1.4l-1.4,1.4c-0.5,0.5-0.5,1.3,0,1.8l3.8,3.8
		c0.3,0.2,0.6,0.4,0.9,0.4s0.6-0.1,0.9-0.4l7.3-7.3l-5.6-5.5L5.6,16.1z"/>
	<path class="st0" d="M26.9,4.1l-3.8-3.8c-0.5-0.5-1.3-0.5-1.8,0L20,1.8l1.4,1.4c0.3,0.3,0.3,0.8,0,1.1c-0.1,0.1-0.3,0.2-0.5,0.2
		c-0.2,0-0.4-0.1-0.5-0.2l-1.4-1.4l-1.8,1.8L18.6,6c0.3,0.3,0.3,0.8,0,1.1c-0.1,0.1-0.3,0.2-0.5,0.2S17.7,7.2,17.6,7l-1.5-1.5l-2,2
		l5.5,5.5l7.3-7.3c0.2-0.2,0.4-0.5,0.4-0.9C27.3,4.6,27.1,4.3,26.9,4.1z"/>
	<rect x="10.8" y="3.4" transform="matrix(0.7071 -0.7071 0.7071 0.7071 -5.7296 13.8771)" class="st0" width="6.1" height="20.8"/>
	<path class="st0" d="M25.1,20.7l-0.6-0.6l-4.4,4.3l0.6,0.6c0.2,0.2,0.4,0.3,0.6,0.3l3.3,0.5c0.7,0.1,1.4-0.5,1.3-1.3l-0.5-3.3
		C25.3,21.1,25.2,20.9,25.1,20.7z"/>
	<path class="st0" d="M3.3,7.6l4.3-4.3L5.9,1.5c-0.4-0.4-1.1-0.4-1.6,0L1.5,4.3c-0.4,0.4-0.4,1.1,0,1.6L3.3,7.6z"/>
</g>
</svg>
