<?xml version="1.0" encoding="utf-8"?>
<!-- Generator: Adobe Illustrator 26.2.1, SVG Export Plug-In . SVG Version: 6.00 Build 0)  -->
<svg version="1.1" id="Capa_1" xmlns="http://www.w3.org/2000/svg" xmlns:xlink="http://www.w3.org/1999/xlink" x="0px" y="0px"
	 viewBox="0 0 25.6 25.1" style="enable-background:new 0 0 25.6 25.1;" xml:space="preserve">
<style type="text/css">
	.st0{fill:#4D4D4D;}
	.st1{fill:#474854;}
</style>
<g id="_x33_RkDZA_00000044895304679015969330000004565311658254983608_">
	<g>
		<path class="st0" d="M5.5,3.7C5.3,3.9,5.2,4.1,5.1,4.3C4.6,5.1,4.2,5.8,3.8,6.6C3.5,7.4,3.7,8.2,4.3,8.7C5,9.4,6.2,9.3,6.8,8.6
			c0.5-0.6,0.6-1.3,0.3-2c-0.3-0.6-0.6-1.3-1-1.9C5.9,4.3,5.7,4,5.5,3.7z M12.8,0c-0.3,0.4-0.5,0.8-0.7,1.2c-0.4,0.7-0.8,1.3-1,2
			c-0.2,0.5-0.1,1,0.2,1.4c0.5,0.8,1.5,1.1,2.4,0.7C14.4,4.9,14.9,4,14.5,3c-0.2-0.6-0.5-1.1-0.8-1.7C13.4,0.9,13.1,0.5,12.8,0z
			 M20.1,1.8c-0.2,0.3-0.4,0.6-0.5,0.8c-0.4,0.7-0.8,1.3-1.1,2.1c-0.1,0.3-0.2,0.7-0.2,1c0.2,1,1,1.7,2,1.6C21.5,7.2,22.2,6,21.9,5
			c-0.2-0.6-0.5-1.2-0.9-1.8C20.7,2.8,20.4,2.3,20.1,1.8z"/>
		<g>
			<path class="st0" d="M0,25.1c0-2.4,0-6.2,0-8.6c0-1.1,0.8-1.9,1.9-1.9c0.5,0,1.1,0,1.6,0c0.1,0,0.1,0,0.2,0c0-1.2,0-2.4,0-3.7
				c1.2,0,2.4,0,3.6,0c0,1.2,0,2.4,0,3.6c1.2,0,2.4,0,3.7,0c0-2.4,0-4.9,0-7.3c1.2,0,2.4,0,3.6,0c0,2.4,0,4.9,0,7.3
				c1.2,0,2.4,0,3.7,0c0-1.8,0-3.6,0-5.5c1.2,0,2.4,0,3.6,0c0,1.8,0,3.6,0,5.5c0.1,0,0.1,0,0.2,0c0.6,0,1.2,0,1.8,0
				c0.8,0,1.5,0.7,1.6,1.5c0,0.2,0,0.3,0,0.5c0,2.3,0,6.1,0,8.4"/>
		</g>
		<path class="st0" d="M5.5,3.7c0.2,0.3,0.4,0.7,0.6,1c0.3,0.6,0.7,1.2,1,1.9c0.3,0.7,0.3,1.4-0.3,2C6.2,9.3,5,9.4,4.3,8.7
			C3.7,8.2,3.5,7.4,3.8,6.6c0.3-0.8,0.8-1.5,1.2-2.2C5.2,4.1,5.3,3.9,5.5,3.7z"/>
		<path class="st0" d="M12.8,0c0.3,0.5,0.6,0.9,0.8,1.4c0.3,0.5,0.6,1.1,0.8,1.7c0.4,1-0.1,1.9-0.9,2.3c-0.9,0.4-1.9,0.1-2.4-0.7
			c-0.3-0.4-0.3-0.9-0.2-1.4c0.2-0.7,0.6-1.4,1-2C12.3,0.8,12.5,0.4,12.8,0z"/>
		<path class="st0" d="M20.1,1.8c0.3,0.5,0.6,0.9,0.9,1.4c0.3,0.6,0.6,1.1,0.9,1.8c0.3,1-0.4,2.2-1.5,2.3c-1,0.1-1.9-0.6-2-1.6
			c-0.1-0.4,0-0.7,0.2-1c0.3-0.7,0.7-1.4,1.1-2.1C19.8,2.4,19.9,2.1,20.1,1.8z"/>
	</g>
</g>
</svg>
