<?xml version="1.0" encoding="utf-8"?>
<!-- Generator: Adobe Illustrator 26.2.1, SVG Export Plug-In . SVG Version: 6.00 Build 0)  -->
<svg version="1.1" id="Capa_1" xmlns="http://www.w3.org/2000/svg" xmlns:xlink="http://www.w3.org/1999/xlink" x="0px" y="0px"
	 viewBox="0 0 18.3 28.1" style="enable-background:new 0 0 18.3 28.1;" xml:space="preserve">
<style type="text/css">
	.st0{fill:#4D4D4D;}
	.st1{fill:#474854;}
</style>
<g>
	<path class="st0" d="M9.1,0C4.1,0,0,4.1,0,9.1c0,3,1,5.3,2.2,7.4l6.3,11.2c0.2,0.3,0.6,0.5,1,0.3c0.1-0.1,0.2-0.2,0.3-0.3l6.3-11.2
		c1.2-2,2.2-4.4,2.2-7.4C18.3,4.1,14.2,0,9.1,0z M9.1,4.9c2.3,0,4.2,1.9,4.2,4.2s-1.9,4.2-4.2,4.2s-4.2-1.9-4.2-4.2S6.8,4.9,9.1,4.9
		z"/>
</g>
</svg>
