<?xml version="1.0" encoding="utf-8"?>
<!-- Generator: Adobe Illustrator 26.2.1, SVG Export Plug-In . SVG Version: 6.00 Build 0)  -->
<svg version="1.1" id="Capa_1" xmlns="http://www.w3.org/2000/svg" xmlns:xlink="http://www.w3.org/1999/xlink" x="0px" y="0px"
	 viewBox="0 0 26.1 26.1" style="enable-background:new 0 0 26.1 26.1;" xml:space="preserve">
<style type="text/css">
	.st0{fill:#4D4D4D;}
	.st1{fill:#474854;}
</style>
<g>
	<path class="st0" d="M18,17.2L13,7.1L8.1,17.2l-4.4,8.9h1.5l4.1-8.3l3.8-7.7l3.8,7.7l4.1,8.3h1.5L18,17.2z M26.1,26.1l-6.3-12.5
		L13,0L6.3,13.6L0,26.1h1.5l5.9-11.8L13,3l5.6,11.3l5.9,11.8H26.1z M13,14.7L7.4,26.1h1.5l4.1-8.4l4.1,8.4h1.5L13,14.7z M18,17.2
		L13,7.1L8.1,17.2l-4.4,8.9h1.5l4.1-8.3l3.8-7.7l3.8,7.7l4.1,8.3h1.5L18,17.2z"/>
</g>
</svg>
