<?xml version="1.0" encoding="utf-8"?>
<!-- Generator: Adobe Illustrator 26.2.1, SVG Export Plug-In . SVG Version: 6.00 Build 0)  -->
<svg version="1.1" id="Capa_1" xmlns="http://www.w3.org/2000/svg" xmlns:xlink="http://www.w3.org/1999/xlink" x="0px" y="0px"
	 viewBox="0 0 31.5 31.5" style="enable-background:new 0 0 31.5 31.5;" xml:space="preserve">
<style type="text/css">
	.st0{fill:#4D4D4D;}
	.st1{fill:#474854;}
</style>
<g>
	<polygon class="st1" points="12.3,17.6 15.4,17.6 13.8,12.9 	"/>
	<path class="st1" d="M27,0H4.5C2,0,0,2,0,4.5V27c0,2.5,2,4.5,4.5,4.5H27c2.5,0,4.5-2,4.5-4.5V4.5C31.5,2,29.5,0,27,0z M17,22.3
		l-0.9-2.6h-4.6l-0.9,2.6H7.9l4.7-12.6H15l4.7,12.6H17z M23.4,22.3h-2.5v-9.4h2.5V22.3z M23.2,11.4c-0.3,0.2-0.6,0.4-1,0.4
		c-0.4,0-0.8-0.1-1-0.4c-0.3-0.2-0.4-0.6-0.4-0.9c0-0.4,0.1-0.7,0.4-0.9c0.3-0.2,0.6-0.4,1-0.4c0.4,0,0.8,0.1,1,0.4
		c0.3,0.2,0.4,0.6,0.4,0.9C23.6,10.9,23.5,11.2,23.2,11.4z"/>
</g>
</svg>
