<?xml version="1.0" encoding="utf-8"?>
<!-- Generator: Adobe Illustrator 26.2.1, SVG Export Plug-In . SVG Version: 6.00 Build 0)  -->
<svg version="1.1" id="Capa_1" xmlns="http://www.w3.org/2000/svg" xmlns:xlink="http://www.w3.org/1999/xlink" x="0px" y="0px"
	 viewBox="0 0 31.4 31.5" style="enable-background:new 0 0 31.4 31.5;" xml:space="preserve">
<style type="text/css">
	.st0{fill:#4D4D4D;}
	.st1{fill:#474854;}
</style>
<path class="st1" d="M25.5,0H6C2.7,0,0,2.7,0,6v19.6c0,3.3,2.7,6,6,6h19.6c3.3,0,6-2.7,6-6V6C31.5,2.7,28.8,0,25.5,0z M16.8,21.8
	c0,0.1-0.1,0.2-0.2,0.2H9.1c-0.2,0-0.2-0.1-0.2-0.2V9.3c0-0.1,0-0.2,0.2-0.2h2.1c0.1,0,0.1,0.1,0.1,0.1v10.6H17
	c0.1,0,0.2,0.1,0.1,0.1L16.8,21.8z M24.1,14.3c0,0.1,0,0.1-0.2,0.1c-1.4,0-2.5,0.5-3,1v6.3c0,0.1-0.1,0.2-0.2,0.2h-2
	c-0.1,0-0.2-0.1-0.2-0.2V15c0-0.8,0-2-0.1-2.6c0-0.1,0-0.1,0.1-0.1h1.8c0.1,0,0.2,0,0.2,0.2c0.1,0.3,0.2,0.7,0.2,1.2
	c0.7-0.8,1.8-1.5,3.1-1.5c0.1,0,0.2,0,0.2,0.1V14.3z"/>
</svg>
