<?xml version="1.0" encoding="utf-8"?>
<!-- Generator: Adobe Illustrator 26.2.1, SVG Export Plug-In . SVG Version: 6.00 Build 0)  -->
<svg version="1.1" id="Capa_1" xmlns="http://www.w3.org/2000/svg" xmlns:xlink="http://www.w3.org/1999/xlink" x="0px" y="0px"
	 viewBox="0 0 31.5 31.5" style="enable-background:new 0 0 31.5 31.5;" xml:space="preserve">
<style type="text/css">
	.st0{fill:#4D4D4D;}
	.st1{fill:#474854;}
</style>
<g>
	<path class="st1" d="M21.9,14c-1.3,0-2,1-2.1,2h2.9c0.7,0,1,0,1.1,0c0-0.1,0-0.1,0-0.2C23.8,15.2,23.4,14,21.9,14z"/>
	<path class="st1" d="M10.7,11c-0.3,1.3-1.1,3.6-1.7,5.4h3.4C12,15.1,11.1,12.4,10.7,11L10.7,11z"/>
	<path class="st1" d="M25.5,0H6C2.7,0,0,2.7,0,6v19.6c0,3.3,2.7,6,6,6h19.6c3.3,0,6-2.7,6-6V6C31.5,2.7,28.8,0,25.5,0z M16.6,21.9
		h-2.2c-0.1,0-0.2,0-0.2-0.1L13,18.6H8.4l-1.1,3.2c0,0.1-0.1,0.2-0.2,0.2h-2C5,21.9,5,21.9,5,21.7l4-11.5c0.1-0.2,0.1-0.4,0.2-1.1
		c0-0.1,0-0.1,0.1-0.1H12c0.1,0,0.1,0,0.1,0.1l4.5,12.6C16.7,21.9,16.7,21.9,16.6,21.9z M25.9,17.4c0,0.1-0.1,0.1-0.2,0.1
		c-0.3,0.1-1.1,0.1-2,0.1h-4c0.1,1.4,1,2.5,3,2.5c0.9,0,1.7-0.2,2.4-0.5c0.1,0,0.1,0,0.1,0.1v1.6c0,0.1,0,0.2-0.1,0.2
		c-0.7,0.4-1.6,0.6-2.9,0.6c-3.6,0-4.8-2.5-4.8-4.9c0-2.7,1.6-5.1,4.6-5.1c2.9,0,4,2.3,4,4.1C26,16.8,26,17.2,25.9,17.4z"/>
</g>
</svg>
