<?xml version="1.0" encoding="utf-8"?>
<!-- Generator: Adobe Illustrator 26.2.1, SVG Export Plug-In . SVG Version: 6.00 Build 0)  -->
<svg version="1.1" id="Capa_1" xmlns="http://www.w3.org/2000/svg" xmlns:xlink="http://www.w3.org/1999/xlink" x="0px" y="0px"
	 viewBox="0 0 31.5 31.5" style="enable-background:new 0 0 31.5 31.5;" xml:space="preserve">
<style type="text/css">
	.st0{fill:#4D4D4D;}
	.st1{fill:#474854;}
</style>
<g>
	<path class="st1" d="M25.5,0H6C2.7,0,0,2.7,0,6v19.6c0,3.3,2.7,6,6,6h19.6c3.3,0,6-2.7,6-6V6C31.5,2.7,28.8,0,25.5,0z M7.1,22
		c-1.2,0-3,0-3.7,0c-0.1,0-0.1-0.1-0.1-0.2V9.3c0-0.1,0-0.1,0.1-0.2c0.6,0,1.9-0.1,3.7-0.1c4.6,0,6.9,2.6,6.9,6.2
		C14.1,20.1,10.4,22,7.1,22z M29.4,12.4l-2.8,9.3c-0.1,0.1-0.1,0.2-0.2,0.2h-2.2c-0.1,0-0.2-0.1-0.2-0.2c-1.1-4.4-1.5-6.1-1.7-7.1h0
		c-0.4,2-0.9,3.8-1.9,7.1c0,0.1-0.1,0.2-0.2,0.2h-2.1c-0.2,0-0.2,0-0.3-0.2l-2.5-9.3c0-0.1,0-0.2,0.1-0.2h2.2c0.1,0,0.1,0,0.2,0.1
		c1.2,4.6,1.5,6.5,1.6,7.2h0c0.2-0.7,0.5-2.5,1.8-7.2c0-0.1,0-0.2,0.2-0.2h2.2c0.1,0,0.1,0,0.2,0.1c1.2,4.8,1.5,6.5,1.6,7.3h0
		c0.2-1.2,0.5-3.1,1.7-7.3c0-0.1,0.1-0.1,0.2-0.1h2C29.4,12.3,29.4,12.3,29.4,12.4z"/>
	<path class="st1" d="M7.1,11.1c-0.5,0-1,0-1.4,0v8.8c0.4,0,0.8,0,1.3,0c2.8,0,4.6-1.6,4.6-4.6C11.6,12.5,9.8,11.1,7.1,11.1z"/>
</g>
</svg>
