<?xml version="1.0" encoding="utf-8"?>
<!-- Generator: Adobe Illustrator 26.2.1, SVG Export Plug-In . SVG Version: 6.00 Build 0)  -->
<svg version="1.1" id="Capa_1" xmlns="http://www.w3.org/2000/svg" xmlns:xlink="http://www.w3.org/1999/xlink" x="0px" y="0px"
	 viewBox="0 0 31.5 31.5" style="enable-background:new 0 0 31.5 31.5;" xml:space="preserve">
<style type="text/css">
	.st0{fill:#4D4D4D;}
	.st1{fill:#474854;}
</style>
<g>
	<path class="st1" d="M19.9,13.6c-1.4,0-2.5,1.1-2.5,2.5c0,1.4,1.1,2.5,2.5,2.5c1.4,0,2.5-1.1,2.5-2.5
		C22.4,14.7,21.3,13.6,19.9,13.6z"/>
	<path class="st1" d="M12.9,11.5c0.7,0,1.5,0,2.2,0c0.2,0,0.3-0.1,0.3-0.3c0-0.7,0-1.5,0-2.2c0-0.8,0-1.5,0-2.3
		c0-0.2-0.1-0.3-0.3-0.3c-0.7,0-1.3,0-2,0c-0.2,0-0.5,0-0.7,0c-1.3,0.3-2.1,1.4-2,2.7C10.5,10.6,11.5,11.5,12.9,11.5z"/>
	<path class="st1" d="M15.2,20.6c-0.8,0-1.6,0-2.4,0c-0.2,0-0.3,0-0.5,0.1c-1.3,0.3-2.1,1.5-1.9,2.8c0.2,1.3,1.3,2.2,2.7,2.1
		c1.3-0.1,2.3-1.2,2.3-2.5c0-0.4,0-0.7,0-1.1c0,0,0,0,0,0c0-0.4,0-0.8,0-1.2C15.4,20.7,15.4,20.6,15.2,20.6z"/>
	<path class="st1" d="M15.4,16.1c0-0.8,0-1.5,0-2.3c0-0.2,0-0.2-0.2-0.2c-0.8,0-1.6,0-2.4,0c-1.4,0-2.5,1.2-2.5,2.5
		c0,1.4,1.1,2.5,2.5,2.5c0.8,0,1.5,0,2.3,0c0.2,0,0.3-0.1,0.3-0.3C15.4,17.6,15.4,16.9,15.4,16.1C15.4,16.1,15.4,16.1,15.4,16.1z"/>
	<path class="st1" d="M26.9,0H4.5C2,0,0,2,0,4.5v22.4c0,2.5,2,4.5,4.5,4.5h22.4c2.5,0,4.5-2,4.5-4.5V4.5C31.5,2,29.4,0,26.9,0z
		 M23.7,18.6c-0.7,1-1.6,1.7-2.9,1.9c-1.2,0.2-2.3,0-3.4-0.7c0,0.2,0,0.3,0,0.4c0,0.9,0,1.9,0,2.8c0,2.6-2.1,4.6-4.7,4.6
		c-2.7-0.1-4.8-2.7-4.2-5.4c0.2-1,0.7-1.8,1.4-2.5c0.1-0.1,0.1-0.1,0.2-0.2c-1.1-1-1.7-2.1-1.7-3.5c0-1.4,0.6-2.6,1.6-3.5
		c-0.3-0.3-0.6-0.6-0.8-1C8,10,8.1,7.6,9.4,6.1c0.9-1.1,2.1-1.6,3.5-1.6c2.3,0,4.6,0,6.9,0c3.1,0,5.3,3,4.4,5.9
		c-0.2,0.8-0.7,1.4-1.2,1.9c-0.1,0.1-0.2,0.1-0.2,0.2C24.8,14.3,24.9,16.9,23.7,18.6z"/>
	<path class="st1" d="M20.1,6.5c-0.8,0-1.7,0-2.5,0c-0.2,0-0.2,0.1-0.2,0.2c0,0.8,0,1.5,0,2.3c0,0.8,0,1.5,0,2.3
		c0,0.2,0,0.2,0.2,0.2c0.8,0,1.6,0,2.5,0c1.3,0,2.3-1.2,2.4-2.5C22.4,7.7,21.4,6.6,20.1,6.5z"/>
</g>
</svg>
