<?xml version="1.0" encoding="utf-8"?>
<!-- Generator: Adobe Illustrator 26.2.1, SVG Export Plug-In . SVG Version: 6.00 Build 0)  -->
<svg version="1.1" id="Capa_1" xmlns="http://www.w3.org/2000/svg" xmlns:xlink="http://www.w3.org/1999/xlink" x="0px" y="0px"
	 viewBox="0 0 31.5 31.5" style="enable-background:new 0 0 31.5 31.5;" xml:space="preserve">
<style type="text/css">
	.st0{fill:#4D4D4D;}
	.st1{fill:#474854;}
</style>
<g>
	<polygon class="st1" points="16.3,25.3 17.8,25.3 17,22.9 	"/>
	<path class="st1" d="M26.9,0H4.5C2,0,0,2,0,4.5v22.4c0,2.5,2,4.5,4.5,4.5h22.4c2.5,0,4.5-2,4.5-4.5V4.5C31.5,2,29.4,0,26.9,0z
		 M15.5,11.5h-1.4v-2h1.4c0.7,0,1.1-0.2,1.4-0.5c0.3-0.3,0.5-0.8,0.5-1.3c0-0.5-0.2-0.9-0.5-1.2c-0.3-0.3-0.7-0.4-1.3-0.4
		c-0.5,0-0.9,0.1-1.2,0.4c-0.3,0.3-0.5,0.6-0.5,1.1h-2.6c0-0.7,0.2-1.3,0.5-1.8c0.4-0.5,0.9-1,1.5-1.3C14.1,4.2,14.8,4,15.6,4
		c1.4,0,2.4,0.3,3.2,1C19.6,5.6,20,6.5,20,7.7c0,0.6-0.2,1.1-0.5,1.6c-0.4,0.5-0.8,0.9-1.4,1.1c0.7,0.3,1.3,0.7,1.6,1.2
		c0.4,0.5,0.5,1.1,0.5,1.8c0,1.1-0.4,2.1-1.3,2.8c-0.8,0.7-1.9,1-3.3,1c-1.3,0-2.3-0.3-3.2-1s-1.2-1.6-1.2-2.7h2.6
		c0,0.5,0.2,0.9,0.5,1.2c0.4,0.3,0.8,0.5,1.3,0.5c0.6,0,1.1-0.2,1.4-0.5c0.3-0.3,0.5-0.8,0.5-1.3C17.6,12.2,16.9,11.5,15.5,11.5z
		 M13.4,27.7h-1.3V26l0.1-3l-1.7,4.7H9.6L7.9,23L8,26v1.7H6.7v-6.4h1.7L10,26l1.6-4.6h1.7V27.7z M18.6,27.7l-0.4-1.3h-2.3l-0.4,1.3
		h-1.4l2.4-6.4h1.2l2.4,6.4H18.6z M24.1,27.7l-1.2-2.2l-1.2,2.2h-1.5l1.9-3.2l-1.9-3.2h1.5l1.2,2.2l1.2-2.2h1.5l-1.9,3.2l1.9,3.2
		H24.1z"/>
</g>
</svg>
